<svg width="618" height="397" viewBox="0 0 618 397" fill="none" xmlns="http://www.w3.org/2000/svg">
<path d="M10 317.448V13.6221H133.735C150.887 13.6221 164.227 18.5225 173.755 28.3233C183.556 38.1241 188.457 53.3698 188.457 74.0605V99.7876C188.457 114.217 184.917 125.515 177.839 133.682C171.033 141.849 164.091 147.294 157.012 150.017C182.603 158.184 195.399 176.969 195.399 206.372V244.758C195.399 268.443 190.09 286.548 179.473 299.071C169.127 311.322 154.018 317.448 134.144 317.448H10ZM100.249 185.953H91.6735V257.417H100.249C104.061 257.417 106.511 256.465 107.6 254.559C108.961 252.653 109.642 249.522 109.642 245.166V198.204C109.642 190.037 106.511 185.953 100.249 185.953ZM97.799 71.6102H91.6735V129.19H97.799C104.061 129.19 107.191 125.106 107.191 116.939V83.4529C107.191 79.097 106.511 76.1023 105.15 74.4688C104.061 72.5631 101.61 71.6102 97.799 71.6102Z" fill="#501500"/>
<path d="M204.613 317.448V13.6221H299.354L312.013 143.075L325.898 13.6221H416.964V317.448H348.766V166.352L324.264 317.448H296.087L271.993 166.352V317.448H204.613Z" fill="#501500"/>
<path d="M529.185 317.448L525.51 279.878H495.699L492.024 317.448H421.784L461.396 13.6221H563.896L608 317.448H529.185ZM510.4 131.64L502.641 211.68H518.567L510.4 131.64Z" fill="#501500"/>
<path d="M232.957 375.951C232.957 373.791 233.439 371.797 234.403 369.969C235.333 368.174 236.53 366.529 237.992 365.034C239.487 363.572 241.132 362.259 242.927 361.096C244.755 359.933 246.533 358.919 248.261 358.055L249.707 353.419C249.54 353.618 249.208 353.951 248.71 354.416C248.244 354.881 247.746 355.38 247.214 355.911C246.682 356.41 246.167 356.892 245.669 357.357C245.17 357.789 244.821 358.088 244.622 358.254C244.223 358.587 243.741 358.969 243.176 359.401C242.611 359.833 241.996 360.248 241.332 360.647C240.7 361.013 240.052 361.328 239.388 361.594C238.723 361.827 238.125 361.943 237.593 361.943C236.862 361.943 236.38 361.777 236.147 361.445C235.948 361.079 235.848 360.564 235.848 359.899C235.848 359.368 235.882 358.819 235.948 358.254C236.048 357.689 236.031 357.124 235.898 356.559L237.842 351.275C238.141 350.976 238.424 350.511 238.69 349.88C238.989 349.248 239.271 348.617 239.537 347.985C239.836 347.354 240.135 346.806 240.435 346.34C240.767 345.875 241.116 345.642 241.481 345.642C241.88 345.642 242.212 345.759 242.478 345.991C242.777 346.224 242.927 346.556 242.927 346.988C242.927 347.321 242.877 347.62 242.777 347.886C242.711 348.118 242.595 348.434 242.428 348.833C241.996 349.73 241.564 350.578 241.132 351.375C240.734 352.173 240.351 352.97 239.986 353.768C239.654 354.566 239.371 355.396 239.138 356.26C238.939 357.091 238.839 358.022 238.839 359.052H239.039C239.039 359.052 239.138 359.002 239.338 358.902C239.537 358.769 239.753 358.637 239.986 358.504C240.252 358.337 240.518 358.171 240.783 358.005C241.049 357.839 241.282 357.689 241.481 357.556C243.309 356.36 244.921 354.964 246.317 353.369C247.713 351.741 249.092 350.062 250.454 348.334C250.587 348.135 250.704 347.985 250.803 347.886C250.903 347.786 250.986 347.719 251.052 347.686C251.119 347.62 251.202 347.587 251.302 347.587C251.401 347.587 251.551 347.587 251.75 347.587C252.216 347.587 252.581 347.686 252.847 347.886C253.146 348.052 253.329 348.451 253.395 349.082C253.429 349.514 253.395 350.046 253.296 350.677C253.196 351.275 253.063 351.874 252.897 352.472C252.731 353.07 252.548 353.668 252.349 354.266C252.182 354.831 252.033 355.28 251.9 355.612V356.36C251.966 356.327 252.116 356.277 252.349 356.211C252.614 356.144 252.797 356.094 252.897 356.061C253.096 356.028 253.645 355.845 254.542 355.513C255.439 355.18 256.403 354.831 257.433 354.466C258.497 354.067 259.477 353.701 260.374 353.369C261.272 353.037 261.837 352.821 262.069 352.721H262.169C262.402 352.721 262.601 352.804 262.767 352.97C262.967 353.136 263.066 353.336 263.066 353.569C263.066 353.801 262.983 354.001 262.817 354.167C262.684 354.333 262.518 354.482 262.318 354.615C262.119 354.715 261.903 354.815 261.67 354.914C261.438 355.014 261.238 355.097 261.072 355.164C260.84 355.297 260.507 355.463 260.075 355.662C259.643 355.828 259.145 356.028 258.58 356.26C258.048 356.46 257.483 356.692 256.885 356.958C256.287 357.224 255.705 357.473 255.14 357.706C253.778 358.271 252.299 358.869 250.704 359.501L246.317 376.051C246.117 376.848 245.735 377.679 245.17 378.543C244.638 379.407 244.007 380.205 243.276 380.936C242.545 381.667 241.731 382.249 240.833 382.681C239.969 383.146 239.089 383.379 238.191 383.379C237.261 383.379 236.463 383.129 235.799 382.631C235.134 382.166 234.586 381.551 234.153 380.786C233.721 380.055 233.422 379.258 233.256 378.394C233.057 377.53 232.957 376.715 232.957 375.951ZM235.649 375.951C235.649 376.383 235.682 376.865 235.749 377.397C235.848 377.928 236.015 378.443 236.247 378.942C236.48 379.44 236.762 379.856 237.095 380.188C237.46 380.521 237.925 380.687 238.49 380.687C239.222 380.687 239.886 380.454 240.484 379.989C241.116 379.557 241.664 379.008 242.129 378.344C242.628 377.712 243.043 377.031 243.376 376.3C243.708 375.569 243.974 374.921 244.173 374.356C244.273 373.957 244.422 373.392 244.622 372.661C244.821 371.963 245.004 371.265 245.17 370.567C245.37 369.869 245.536 369.238 245.669 368.673C245.802 368.141 245.868 367.825 245.868 367.726V367.526L247.314 361.245C245.984 361.677 244.622 362.408 243.226 363.439C241.864 364.469 240.617 365.665 239.487 367.028C238.357 368.39 237.427 369.853 236.696 371.415C235.998 372.977 235.649 374.489 235.649 375.951Z" fill="#501500"/>
<path d="M261.272 361.893C261.272 361.794 261.272 361.544 261.272 361.146C261.272 360.747 261.272 360.481 261.272 360.348C260.707 358.354 260.624 356.393 261.022 354.466C261.454 352.538 262.202 350.81 263.266 349.281C264.362 347.719 265.741 346.423 267.403 345.393C269.098 344.33 270.942 343.682 272.936 343.449H273.834C274.565 343.449 275.163 343.615 275.628 343.948C276.127 344.247 276.509 344.645 276.775 345.144C277.074 345.642 277.273 346.207 277.373 346.839C277.506 347.47 277.572 348.102 277.572 348.733C277.572 349.597 277.473 350.445 277.273 351.275C277.107 352.073 276.908 352.887 276.675 353.718C276.476 354.549 276.276 355.38 276.077 356.211C275.911 357.008 275.828 357.856 275.828 358.753V359.052C275.861 359.118 275.894 359.318 275.927 359.65C275.994 359.949 276.044 360.132 276.077 360.199C276.143 360.199 276.31 360.215 276.575 360.248C276.841 360.248 277.007 360.248 277.074 360.248C277.406 360.248 277.722 360.248 278.021 360.248C278.353 360.215 278.686 360.132 279.018 359.999L288.489 355.612C288.523 355.612 288.573 355.612 288.639 355.612C288.739 355.579 288.805 355.562 288.838 355.562C289.171 355.562 289.437 355.662 289.636 355.862C289.869 356.061 289.985 356.327 289.985 356.659C289.985 356.825 289.968 356.992 289.935 357.158C289.935 357.291 289.852 357.424 289.686 357.556C289.453 357.723 289.021 357.955 288.39 358.254C287.792 358.553 287.144 358.886 286.446 359.251C285.748 359.617 285.083 359.966 284.452 360.298C283.853 360.631 283.421 360.847 283.156 360.946C282.69 361.212 282.175 361.461 281.61 361.694C281.045 361.893 280.464 362.093 279.866 362.292C279.267 362.492 278.669 362.658 278.071 362.791C277.506 362.89 276.991 362.94 276.526 362.94C275.794 362.94 275.196 362.824 274.731 362.591C274.266 362.325 273.917 361.993 273.684 361.594C273.452 361.162 273.285 360.664 273.186 360.099C273.119 359.501 273.119 358.886 273.186 358.254C272.521 358.786 271.806 359.351 271.042 359.949C270.278 360.547 269.48 361.096 268.649 361.594C267.819 362.093 266.971 362.525 266.107 362.89C265.243 363.256 264.362 363.439 263.465 363.439C262.967 363.439 262.518 363.322 262.119 363.09C261.72 362.824 261.438 362.425 261.272 361.893ZM263.964 360.847C264.728 360.847 265.575 360.631 266.506 360.199C267.436 359.733 268.35 359.168 269.248 358.504C270.145 357.839 270.959 357.141 271.69 356.41C272.421 355.646 272.986 354.964 273.385 354.366C273.418 353.369 273.551 352.422 273.784 351.525C274.05 350.594 274.183 349.647 274.183 348.683C274.183 348.617 274.166 348.517 274.133 348.384C274.133 348.251 274.133 348.152 274.133 348.085C273.701 347.719 273.335 347.503 273.036 347.437C272.737 347.371 272.338 347.337 271.84 347.337C271.773 347.337 271.624 347.337 271.391 347.337C271.192 347.337 271.059 347.354 270.992 347.387C270.793 347.553 270.461 347.869 269.995 348.334C269.53 348.766 269.032 349.248 268.5 349.78C268.001 350.312 267.519 350.81 267.054 351.275C266.622 351.741 266.323 352.056 266.157 352.223C266.124 352.223 266.057 352.289 265.957 352.422C265.858 352.522 265.741 352.655 265.609 352.821C265.509 352.987 265.409 353.153 265.309 353.319C265.243 353.452 265.193 353.569 265.16 353.668L263.964 359.501V360.847Z" fill="#501500"/>
<path d="M288.34 356.559C288.506 354.865 288.888 353.253 289.486 351.724C290.118 350.195 290.832 348.883 291.63 347.786C292.461 346.689 293.292 345.842 294.122 345.244C294.987 344.645 295.734 344.463 296.366 344.695C296.532 344.596 296.665 344.513 296.765 344.446C296.897 344.346 296.997 344.263 297.064 344.197C297.163 344.097 297.263 344.031 297.363 343.997C297.496 343.931 297.678 343.898 297.911 343.898C298.376 343.898 298.792 344.047 299.157 344.346C299.523 344.645 299.839 345.011 300.104 345.443C300.404 345.875 300.62 346.34 300.752 346.839C300.919 347.304 301.002 347.736 301.002 348.135C301.002 348.567 300.836 348.866 300.503 349.032C300.171 349.198 299.789 349.281 299.357 349.281C299.091 349.281 298.858 349.232 298.659 349.132C298.459 348.999 298.277 348.849 298.11 348.683C297.978 348.517 297.828 348.351 297.662 348.185C297.496 348.019 297.28 347.902 297.014 347.836H296.814C296.781 347.869 296.698 347.952 296.565 348.085C296.465 348.185 296.399 348.268 296.366 348.334C295.668 349.165 295.02 349.913 294.422 350.578C293.823 351.209 293.292 351.857 292.826 352.522C292.394 353.186 292.045 353.901 291.78 354.665C291.547 355.43 291.431 356.343 291.431 357.407C291.431 357.507 291.431 357.656 291.431 357.856C291.431 358.055 291.431 358.254 291.431 358.454C291.464 358.653 291.48 358.853 291.48 359.052C291.48 359.251 291.48 359.401 291.48 359.501C291.547 359.833 291.73 360.082 292.029 360.248C292.361 360.415 292.66 360.581 292.926 360.747C293.026 360.747 293.275 360.763 293.674 360.797C294.073 360.797 294.305 360.797 294.372 360.797C295.568 360.797 296.981 360.614 298.609 360.248C300.237 359.85 301.866 359.334 303.494 358.703C305.156 358.072 306.718 357.324 308.18 356.46C309.642 355.562 310.805 354.632 311.67 353.668C311.869 353.402 312.035 353.037 312.168 352.572C312.334 352.106 312.5 351.658 312.667 351.226C312.866 350.76 313.082 350.362 313.315 350.029C313.547 349.697 313.896 349.531 314.361 349.531C314.793 349.531 315.059 349.713 315.159 350.079C315.292 350.411 315.358 350.744 315.358 351.076C315.358 352.139 315.093 353.103 314.561 353.967C314.062 354.831 313.431 355.612 312.667 356.31C311.902 357.008 311.055 357.623 310.124 358.155C309.227 358.686 308.363 359.135 307.532 359.501C307.299 359.567 306.784 359.75 305.987 360.049C305.222 360.348 304.391 360.664 303.494 360.996C302.597 361.328 301.716 361.661 300.852 361.993C300.021 362.292 299.407 362.525 299.008 362.691C298.476 362.857 298.027 362.99 297.662 363.09C297.296 363.156 296.964 363.223 296.665 363.289C296.366 363.356 296.05 363.389 295.718 363.389C295.419 363.422 295.053 363.439 294.621 363.439C293.425 363.439 292.428 363.289 291.63 362.99C290.866 362.691 290.251 362.259 289.786 361.694C289.32 361.096 288.971 360.381 288.739 359.55C288.539 358.686 288.406 357.689 288.34 356.559Z" fill="#501500"/>
<path d="M324.78 352.173C324.713 352.04 324.597 351.857 324.431 351.624C324.298 351.359 324.132 351.226 323.933 351.226C323.301 351.226 322.653 351.508 321.988 352.073C321.357 352.605 320.742 353.253 320.144 354.017C319.579 354.748 319.08 355.496 318.648 356.26C318.25 357.025 318 357.623 317.901 358.055C317.768 358.487 317.701 359.002 317.701 359.6C317.701 360.199 317.651 360.763 317.552 361.295C317.485 361.827 317.303 362.276 317.003 362.641C316.738 363.007 316.256 363.189 315.558 363.189C315.126 363.189 314.827 363.106 314.66 362.94C314.528 362.741 314.461 362.425 314.461 361.993C314.694 360.398 314.893 359.085 315.059 358.055C315.259 357.025 315.425 356.127 315.558 355.363C315.724 354.566 315.873 353.801 316.006 353.07C316.173 352.306 316.355 351.392 316.555 350.328C316.754 349.265 316.97 347.969 317.203 346.44C317.435 344.878 317.718 342.901 318.05 340.508C318.05 340.009 318.083 339.312 318.15 338.414C318.216 337.484 318.333 336.503 318.499 335.473C318.698 334.41 318.948 333.346 319.247 332.283C319.546 331.186 319.911 330.206 320.343 329.342C320.809 328.478 321.34 327.78 321.939 327.248C322.537 326.683 323.235 326.401 324.032 326.401C324.597 326.401 325.046 326.6 325.378 326.999C325.744 327.364 326.01 327.813 326.176 328.345C326.375 328.876 326.491 329.441 326.525 330.04C326.558 330.604 326.575 331.07 326.575 331.435C326.575 332.266 326.508 333.064 326.375 333.828C326.242 334.559 326.076 335.307 325.877 336.071C325.677 336.802 325.461 337.55 325.229 338.315C324.996 339.046 324.797 339.777 324.63 340.508L321.44 346.59L319.645 350.478L319.895 351.026C320.593 350.195 321.307 349.564 322.038 349.132C322.769 348.667 323.683 348.401 324.78 348.334C325.278 348.301 325.694 348.451 326.026 348.783C326.392 349.115 326.691 349.547 326.923 350.079C327.156 350.578 327.322 351.093 327.422 351.624C327.555 352.156 327.638 352.588 327.671 352.92C327.671 353.12 327.655 353.436 327.621 353.868C327.588 354.3 327.555 354.798 327.522 355.363C327.488 355.928 327.455 356.526 327.422 357.158C327.422 357.756 327.455 358.321 327.522 358.853C327.588 359.384 327.721 359.85 327.92 360.248C328.153 360.614 328.452 360.83 328.818 360.896C330.114 360.73 331.26 360.514 332.257 360.248C333.288 359.949 334.185 359.55 334.949 359.052C335.714 358.52 336.345 357.856 336.844 357.058C337.375 356.26 337.774 355.28 338.04 354.117C338.273 353.785 338.605 353.618 339.037 353.618C339.535 353.618 339.851 353.801 339.984 354.167C340.15 354.532 340.233 354.931 340.233 355.363C340.233 356.692 339.801 357.872 338.937 358.902C338.106 359.899 337.043 360.73 335.747 361.395C334.451 362.06 333.055 362.575 331.559 362.94C330.064 363.273 328.685 363.439 327.422 363.439C326.624 363.439 326.076 363.173 325.777 362.641C325.478 362.076 325.295 361.412 325.229 360.647C325.195 359.85 325.195 359.052 325.229 358.254C325.262 357.457 325.262 356.809 325.229 356.31C325.229 356.144 325.212 355.878 325.179 355.513C325.146 355.114 325.096 354.698 325.029 354.266C324.996 353.834 324.946 353.419 324.88 353.02C324.813 352.621 324.78 352.339 324.78 352.173ZM320.692 340.209C320.692 340.309 320.692 340.475 320.692 340.707C320.692 340.94 320.692 341.156 320.692 341.355C320.726 341.555 320.742 341.738 320.742 341.904C320.742 342.07 320.742 342.17 320.742 342.203L320.991 342.452C321.324 342.253 321.623 341.904 321.889 341.405C322.188 340.907 322.454 340.309 322.686 339.611C322.919 338.913 323.118 338.182 323.284 337.417C323.484 336.62 323.65 335.839 323.783 335.074C323.916 334.31 324.016 333.612 324.082 332.981C324.182 332.349 324.232 331.834 324.232 331.435C324.232 331.302 324.215 331.053 324.182 330.688C324.182 330.322 324.165 330.106 324.132 330.04L323.883 329.541C323.085 330.172 322.47 330.92 322.038 331.784C321.606 332.648 321.29 333.546 321.091 334.476C320.892 335.407 320.775 336.37 320.742 337.367C320.709 338.364 320.692 339.312 320.692 340.209Z" fill="#501500"/>
<path d="M340.034 350.029C340.1 349.896 340.233 349.697 340.433 349.431C340.632 349.132 340.732 348.883 340.732 348.683V348.534C340.732 348.5 340.699 348.467 340.632 348.434C340.566 348.368 340.516 348.334 340.483 348.334H339.585C338.721 348.6 337.757 348.783 336.694 348.883C335.597 348.982 334.55 349.016 333.553 348.982C332.523 348.949 331.643 348.866 330.911 348.733C330.18 348.567 329.748 348.384 329.615 348.185C329.482 347.985 329.732 347.753 330.363 347.487C330.995 347.188 332.191 346.889 333.952 346.59C334.052 346.59 334.285 346.556 334.65 346.49C334.982 346.39 335.365 346.307 335.797 346.241C336.195 346.174 336.578 346.108 336.943 346.041C337.309 345.942 337.541 345.892 337.641 345.892C337.774 345.858 338.057 345.842 338.489 345.842C338.921 345.809 339.353 345.775 339.785 345.742C340.25 345.709 340.682 345.692 341.081 345.692C341.513 345.692 341.812 345.692 341.978 345.692L342.227 345.393L346.116 338.863C346.248 338.63 346.481 338.447 346.813 338.315C347.179 338.182 347.461 338.115 347.661 338.115C348.093 338.115 348.392 338.298 348.558 338.663C348.724 338.996 348.807 339.328 348.807 339.66C348.807 339.694 348.791 339.727 348.758 339.76C348.758 339.793 348.758 339.827 348.758 339.86V340.059L346.564 345.393V345.692C346.631 345.493 346.747 345.393 346.913 345.393C347.113 345.393 347.262 345.393 347.362 345.393C347.86 345.393 348.342 345.559 348.807 345.892C349.273 346.224 349.505 346.673 349.505 347.238C349.505 347.503 349.422 347.719 349.256 347.886C349.09 348.052 348.891 348.185 348.658 348.284C348.425 348.384 348.176 348.467 347.91 348.534C347.644 348.567 347.412 348.584 347.212 348.584C346.813 348.584 346.431 348.534 346.066 348.434C345.733 348.334 345.368 348.284 344.969 348.284C344.603 348.284 344.271 348.484 343.972 348.883C343.673 349.248 343.39 349.747 343.125 350.378C342.892 350.976 342.693 351.658 342.526 352.422C342.36 353.186 342.211 353.934 342.078 354.665C341.945 355.396 341.845 356.078 341.779 356.709C341.745 357.34 341.729 357.822 341.729 358.155C341.729 358.288 341.729 358.553 341.729 358.952C341.762 359.351 341.779 359.617 341.779 359.75C341.812 359.949 341.895 360.132 342.028 360.298C342.161 360.431 342.294 360.581 342.427 360.747H343.573C344.903 360.747 346.215 360.448 347.511 359.85C348.841 359.251 350.087 358.57 351.25 357.806C351.317 357.772 351.466 357.623 351.699 357.357C351.965 357.058 352.247 356.775 352.546 356.51C352.845 356.211 353.111 355.945 353.344 355.712C353.61 355.479 353.792 355.363 353.892 355.363C354.125 355.363 354.341 355.479 354.54 355.712C354.74 355.945 354.839 356.194 354.839 356.46C354.839 357.091 354.607 357.706 354.141 358.304C353.709 358.902 353.144 359.467 352.446 359.999C351.749 360.498 350.951 360.963 350.054 361.395C349.156 361.827 348.259 362.192 347.362 362.492C346.498 362.791 345.667 363.023 344.869 363.189C344.105 363.356 343.474 363.439 342.975 363.439C342.51 363.439 342.028 363.389 341.529 363.289C341.031 363.156 340.582 362.957 340.183 362.691C339.785 362.425 339.452 362.093 339.186 361.694C338.921 361.295 338.788 360.797 338.788 360.199V354.665L340.034 350.029Z" fill="#501500"/>
<path d="M355.388 356.36C355.122 356.493 354.839 356.576 354.54 356.609C354.241 356.609 353.942 356.609 353.643 356.609C353.344 356.609 353.045 356.626 352.746 356.659C352.446 356.659 352.147 356.726 351.848 356.859C351.283 356.925 350.918 356.892 350.752 356.759C350.585 356.593 350.536 356.377 350.602 356.111C350.668 355.845 350.851 355.546 351.15 355.214C351.449 354.881 351.798 354.599 352.197 354.366C352.563 354.133 352.962 353.967 353.394 353.868C353.859 353.768 354.274 353.785 354.64 353.917C354.474 353.319 354.49 352.804 354.69 352.372C354.889 351.94 355.288 351.724 355.886 351.724C356.185 351.724 356.451 351.757 356.684 351.824C356.95 351.857 357.149 351.99 357.282 352.223C357.78 351.923 358.445 351.425 359.276 350.727C360.107 349.996 360.954 349.265 361.818 348.534C362.715 347.769 363.53 347.105 364.261 346.54C364.992 345.942 365.49 345.642 365.756 345.642C365.856 345.642 365.989 345.659 366.155 345.692C366.321 345.692 366.487 345.726 366.654 345.792C366.853 345.858 367.003 345.942 367.102 346.041C367.235 346.108 367.302 346.224 367.302 346.39V348.534C367.069 349.464 366.836 350.345 366.604 351.176C366.404 351.973 366.222 352.771 366.055 353.569C365.922 354.333 365.823 355.114 365.756 355.911C365.69 356.709 365.657 357.556 365.657 358.454C366.188 358.454 366.82 358.337 367.551 358.105C368.315 357.872 369.08 357.59 369.844 357.257C370.608 356.925 371.323 356.593 371.987 356.26C372.652 355.895 373.184 355.596 373.583 355.363C373.649 355.33 373.799 355.214 374.031 355.014C374.264 354.815 374.513 354.615 374.779 354.416C375.045 354.183 375.294 353.984 375.527 353.818C375.793 353.618 375.959 353.485 376.025 353.419C376.092 353.352 376.258 353.269 376.524 353.17C376.79 353.037 376.939 352.954 376.972 352.92C377.105 352.887 377.222 352.937 377.321 353.07C377.454 353.17 377.571 353.303 377.67 353.469C377.77 353.602 377.836 353.751 377.87 353.917C377.936 354.05 377.969 354.133 377.969 354.167C377.969 354.499 377.836 354.831 377.571 355.164C377.305 355.496 376.989 355.812 376.623 356.111C376.258 356.377 375.876 356.643 375.477 356.908C375.111 357.141 374.829 357.357 374.629 357.556C374.364 357.689 373.898 357.905 373.234 358.205C372.602 358.504 371.921 358.819 371.19 359.152C370.459 359.484 369.761 359.8 369.096 360.099C368.465 360.398 368.016 360.614 367.75 360.747C367.684 360.78 367.534 360.83 367.302 360.896C367.069 360.93 366.82 360.996 366.554 361.096C366.288 361.195 366.022 361.279 365.756 361.345C365.524 361.378 365.374 361.412 365.308 361.445C365.009 361.544 364.776 361.711 364.61 361.943C364.477 362.176 364.327 362.408 364.161 362.641C364.028 362.874 363.845 363.073 363.613 363.239C363.413 363.405 363.081 363.455 362.616 363.389C362.583 363.356 362.433 363.289 362.167 363.189C361.934 363.057 361.785 362.957 361.718 362.89C360.921 362.325 360.24 361.794 359.675 361.295C359.11 360.797 358.595 360.315 358.129 359.85C357.664 359.351 357.215 358.819 356.783 358.254C356.385 357.689 355.919 357.058 355.388 356.36ZM358.528 354.366C358.761 354.865 358.977 355.346 359.176 355.812C359.409 356.277 359.675 356.726 359.974 357.158C360.273 357.556 360.605 357.905 360.971 358.205C361.37 358.504 361.851 358.686 362.416 358.753C362.483 358.254 362.566 357.656 362.666 356.958C362.765 356.26 362.882 355.529 363.015 354.765C363.147 354.001 363.297 353.253 363.463 352.522C363.663 351.757 363.879 351.093 364.111 350.528H363.613C363.081 350.893 362.583 351.259 362.117 351.624C361.685 351.957 361.253 352.289 360.821 352.621C360.389 352.92 360.04 353.186 359.774 353.419C359.741 353.452 359.691 353.502 359.625 353.569C359.558 353.635 359.508 353.668 359.475 353.668C359.442 353.735 359.292 353.851 359.027 354.017C358.761 354.183 358.595 354.3 358.528 354.366ZM364.111 349.78C364.012 349.78 363.962 349.863 363.962 350.029C363.962 350.162 364.012 350.229 364.111 350.229C364.244 350.229 364.311 350.162 364.311 350.029C364.311 349.863 364.244 349.78 364.111 349.78Z" fill="#501500"/>
</svg>
