<svg width="598" height="370" viewBox="0 0 598 370" fill="none" xmlns="http://www.w3.org/2000/svg">
<path d="M0 303.825V0H123.735C140.887 0 154.227 4.90041 163.755 14.7012C173.556 24.502 178.457 39.7478 178.457 60.4384V86.1655C178.457 100.595 174.917 111.893 167.839 120.06C161.033 128.227 154.091 133.672 147.012 136.395C172.603 144.562 185.399 163.347 185.399 192.749V231.136C185.399 254.821 180.09 272.926 169.473 285.449C159.127 297.7 144.018 303.825 124.144 303.825H0ZM90.2492 172.331H81.6735V243.795H90.2492C94.0607 243.795 96.5109 242.843 97.5998 240.937C98.9611 239.031 99.6417 235.9 99.6417 231.544V184.582C99.6417 176.415 96.5109 172.331 90.2492 172.331ZM87.799 57.9882H81.6735V115.568H87.799C94.0607 115.568 97.1915 111.484 97.1915 103.317V69.8309C97.1915 65.4749 96.5109 62.4802 95.1496 60.8468C94.0607 58.941 91.6104 57.9882 87.799 57.9882Z" fill="#501500"/>
<path d="M194.613 303.825V0H289.354L302.013 129.453L315.898 0H406.964V303.825H338.766V152.729L314.264 303.825H286.087L261.993 152.729V303.825H194.613Z" fill="#501500"/>
<path d="M519.185 303.825L515.51 266.256H485.699L482.024 303.825H411.784L451.396 0H553.896L598 303.825H519.185ZM500.4 118.018L492.641 198.058H508.567L500.4 118.018Z" fill="#501500"/>
<path d="M222.957 362.329C222.957 360.169 223.439 358.175 224.403 356.347C225.333 354.552 226.53 352.907 227.992 351.412C229.487 349.95 231.132 348.637 232.927 347.474C234.755 346.311 236.533 345.297 238.261 344.433L239.707 339.797C239.54 339.996 239.208 340.329 238.71 340.794C238.244 341.259 237.746 341.758 237.214 342.289C236.682 342.788 236.167 343.27 235.669 343.735C235.17 344.167 234.821 344.466 234.622 344.632C234.223 344.965 233.741 345.347 233.176 345.779C232.611 346.211 231.996 346.626 231.332 347.025C230.7 347.391 230.052 347.706 229.388 347.972C228.723 348.205 228.125 348.321 227.593 348.321C226.862 348.321 226.38 348.155 226.147 347.823C225.948 347.457 225.848 346.942 225.848 346.277C225.848 345.746 225.882 345.197 225.948 344.632C226.048 344.067 226.031 343.502 225.898 342.937L227.842 337.653C228.141 337.354 228.424 336.889 228.69 336.258C228.989 335.626 229.271 334.995 229.537 334.363C229.836 333.732 230.135 333.184 230.435 332.718C230.767 332.253 231.116 332.02 231.481 332.02C231.88 332.02 232.212 332.137 232.478 332.369C232.777 332.602 232.927 332.934 232.927 333.366C232.927 333.699 232.877 333.998 232.777 334.264C232.711 334.496 232.595 334.812 232.428 335.211C231.996 336.108 231.564 336.955 231.132 337.753C230.734 338.551 230.351 339.348 229.986 340.146C229.654 340.943 229.371 341.774 229.138 342.638C228.939 343.469 228.839 344.4 228.839 345.43H229.039C229.039 345.43 229.138 345.38 229.338 345.28C229.537 345.147 229.753 345.014 229.986 344.882C230.252 344.715 230.518 344.549 230.783 344.383C231.049 344.217 231.282 344.067 231.481 343.934C233.309 342.738 234.921 341.342 236.317 339.747C237.713 338.119 239.092 336.44 240.454 334.712C240.587 334.513 240.704 334.363 240.803 334.264C240.903 334.164 240.986 334.097 241.052 334.064C241.119 333.998 241.202 333.964 241.302 333.964C241.401 333.964 241.551 333.964 241.75 333.964C242.216 333.964 242.581 334.064 242.847 334.264C243.146 334.43 243.329 334.829 243.395 335.46C243.429 335.892 243.395 336.424 243.296 337.055C243.196 337.653 243.063 338.252 242.897 338.85C242.731 339.448 242.548 340.046 242.349 340.644C242.182 341.209 242.033 341.658 241.9 341.99V342.738C241.966 342.705 242.116 342.655 242.349 342.588C242.614 342.522 242.797 342.472 242.897 342.439C243.096 342.406 243.645 342.223 244.542 341.891C245.439 341.558 246.403 341.209 247.433 340.844C248.497 340.445 249.477 340.079 250.374 339.747C251.272 339.415 251.837 339.199 252.069 339.099H252.169C252.402 339.099 252.601 339.182 252.767 339.348C252.967 339.514 253.066 339.714 253.066 339.946C253.066 340.179 252.983 340.378 252.817 340.545C252.684 340.711 252.518 340.86 252.318 340.993C252.119 341.093 251.903 341.193 251.67 341.292C251.438 341.392 251.238 341.475 251.072 341.542C250.84 341.675 250.507 341.841 250.075 342.04C249.643 342.206 249.145 342.406 248.58 342.638C248.048 342.838 247.483 343.07 246.885 343.336C246.287 343.602 245.705 343.851 245.14 344.084C243.778 344.649 242.299 345.247 240.704 345.879L236.317 362.429C236.117 363.226 235.735 364.057 235.17 364.921C234.638 365.785 234.007 366.583 233.276 367.314C232.545 368.045 231.731 368.627 230.833 369.059C229.969 369.524 229.089 369.756 228.191 369.756C227.261 369.756 226.463 369.507 225.799 369.009C225.134 368.543 224.586 367.929 224.153 367.164C223.721 366.433 223.422 365.636 223.256 364.772C223.057 363.907 222.957 363.093 222.957 362.329ZM225.649 362.329C225.649 362.761 225.682 363.243 225.749 363.775C225.848 364.306 226.015 364.821 226.247 365.32C226.48 365.818 226.762 366.234 227.095 366.566C227.46 366.898 227.925 367.065 228.49 367.065C229.222 367.065 229.886 366.832 230.484 366.367C231.116 365.935 231.664 365.386 232.129 364.722C232.628 364.09 233.043 363.409 233.376 362.678C233.708 361.947 233.974 361.299 234.173 360.734C234.273 360.335 234.422 359.77 234.622 359.039C234.821 358.341 235.004 357.643 235.17 356.945C235.37 356.247 235.536 355.616 235.669 355.051C235.802 354.519 235.868 354.203 235.868 354.104V353.904L237.314 347.623C235.984 348.055 234.622 348.786 233.226 349.817C231.864 350.847 230.617 352.043 229.487 353.406C228.357 354.768 227.427 356.231 226.696 357.793C225.998 359.355 225.649 360.867 225.649 362.329Z" fill="#501500"/>
<path d="M251.272 348.271C251.272 348.172 251.272 347.922 251.272 347.524C251.272 347.125 251.272 346.859 251.272 346.726C250.707 344.732 250.624 342.771 251.022 340.844C251.454 338.916 252.202 337.188 253.266 335.659C254.362 334.097 255.741 332.801 257.403 331.771C259.098 330.708 260.942 330.06 262.936 329.827H263.834C264.565 329.827 265.163 329.993 265.628 330.325C266.127 330.625 266.509 331.023 266.775 331.522C267.074 332.02 267.273 332.585 267.373 333.217C267.506 333.848 267.572 334.48 267.572 335.111C267.572 335.975 267.473 336.823 267.273 337.653C267.107 338.451 266.908 339.265 266.675 340.096C266.476 340.927 266.276 341.758 266.077 342.588C265.911 343.386 265.828 344.234 265.828 345.131V345.43C265.861 345.496 265.894 345.696 265.927 346.028C265.994 346.327 266.044 346.51 266.077 346.576C266.143 346.576 266.31 346.593 266.575 346.626C266.841 346.626 267.007 346.626 267.074 346.626C267.406 346.626 267.722 346.626 268.021 346.626C268.353 346.593 268.686 346.51 269.018 346.377L278.489 341.99C278.523 341.99 278.573 341.99 278.639 341.99C278.739 341.957 278.805 341.94 278.838 341.94C279.171 341.94 279.437 342.04 279.636 342.24C279.869 342.439 279.985 342.705 279.985 343.037C279.985 343.203 279.968 343.369 279.935 343.536C279.935 343.669 279.852 343.801 279.686 343.934C279.453 344.101 279.021 344.333 278.39 344.632C277.792 344.931 277.144 345.264 276.446 345.629C275.748 345.995 275.083 346.344 274.452 346.676C273.853 347.008 273.421 347.224 273.156 347.324C272.69 347.59 272.175 347.839 271.61 348.072C271.045 348.271 270.464 348.471 269.866 348.67C269.267 348.87 268.669 349.036 268.071 349.169C267.506 349.268 266.991 349.318 266.526 349.318C265.794 349.318 265.196 349.202 264.731 348.969C264.266 348.703 263.917 348.371 263.684 347.972C263.452 347.54 263.285 347.042 263.186 346.477C263.119 345.879 263.119 345.264 263.186 344.632C262.521 345.164 261.806 345.729 261.042 346.327C260.278 346.925 259.48 347.474 258.649 347.972C257.819 348.471 256.971 348.903 256.107 349.268C255.243 349.634 254.362 349.817 253.465 349.817C252.967 349.817 252.518 349.7 252.119 349.468C251.72 349.202 251.438 348.803 251.272 348.271ZM253.964 347.224C254.728 347.224 255.575 347.008 256.506 346.576C257.436 346.111 258.35 345.546 259.248 344.882C260.145 344.217 260.959 343.519 261.69 342.788C262.421 342.024 262.986 341.342 263.385 340.744C263.418 339.747 263.551 338.8 263.784 337.903C264.05 336.972 264.183 336.025 264.183 335.061C264.183 334.995 264.166 334.895 264.133 334.762C264.133 334.629 264.133 334.529 264.133 334.463C263.701 334.097 263.335 333.881 263.036 333.815C262.737 333.748 262.338 333.715 261.84 333.715C261.773 333.715 261.624 333.715 261.391 333.715C261.192 333.715 261.059 333.732 260.992 333.765C260.793 333.931 260.461 334.247 259.995 334.712C259.53 335.144 259.032 335.626 258.5 336.158C258.001 336.69 257.519 337.188 257.054 337.653C256.622 338.119 256.323 338.434 256.157 338.601C256.124 338.601 256.057 338.667 255.957 338.8C255.858 338.9 255.741 339.033 255.609 339.199C255.509 339.365 255.409 339.531 255.309 339.697C255.243 339.83 255.193 339.946 255.16 340.046L253.964 345.879V347.224Z" fill="#501500"/>
<path d="M278.34 342.937C278.506 341.243 278.888 339.631 279.486 338.102C280.118 336.573 280.832 335.261 281.63 334.164C282.461 333.067 283.292 332.22 284.122 331.622C284.987 331.023 285.734 330.841 286.366 331.073C286.532 330.974 286.665 330.89 286.765 330.824C286.897 330.724 286.997 330.641 287.064 330.575C287.163 330.475 287.263 330.409 287.363 330.375C287.496 330.309 287.678 330.276 287.911 330.276C288.376 330.276 288.792 330.425 289.157 330.724C289.523 331.023 289.839 331.389 290.104 331.821C290.404 332.253 290.62 332.718 290.752 333.217C290.919 333.682 291.002 334.114 291.002 334.513C291.002 334.945 290.836 335.244 290.503 335.41C290.171 335.576 289.789 335.659 289.357 335.659C289.091 335.659 288.858 335.61 288.659 335.51C288.459 335.377 288.277 335.227 288.11 335.061C287.978 334.895 287.828 334.729 287.662 334.563C287.496 334.397 287.28 334.28 287.014 334.214H286.814C286.781 334.247 286.698 334.33 286.565 334.463C286.465 334.563 286.399 334.646 286.366 334.712C285.668 335.543 285.02 336.291 284.422 336.955C283.823 337.587 283.292 338.235 282.826 338.9C282.394 339.564 282.045 340.279 281.78 341.043C281.547 341.807 281.431 342.721 281.431 343.785C281.431 343.885 281.431 344.034 281.431 344.234C281.431 344.433 281.431 344.632 281.431 344.832C281.464 345.031 281.48 345.23 281.48 345.43C281.48 345.629 281.48 345.779 281.48 345.879C281.547 346.211 281.73 346.46 282.029 346.626C282.361 346.792 282.66 346.959 282.926 347.125C283.026 347.125 283.275 347.141 283.674 347.175C284.073 347.175 284.305 347.175 284.372 347.175C285.568 347.175 286.981 346.992 288.609 346.626C290.237 346.227 291.866 345.712 293.494 345.081C295.156 344.45 296.718 343.702 298.18 342.838C299.642 341.94 300.805 341.01 301.67 340.046C301.869 339.78 302.035 339.415 302.168 338.949C302.334 338.484 302.5 338.036 302.667 337.604C302.866 337.138 303.082 336.739 303.315 336.407C303.547 336.075 303.896 335.909 304.361 335.909C304.793 335.909 305.059 336.091 305.159 336.457C305.292 336.789 305.358 337.122 305.358 337.454C305.358 338.517 305.093 339.481 304.561 340.345C304.062 341.209 303.431 341.99 302.667 342.688C301.902 343.386 301.055 344.001 300.124 344.533C299.227 345.064 298.363 345.513 297.532 345.879C297.299 345.945 296.784 346.128 295.987 346.427C295.222 346.726 294.391 347.042 293.494 347.374C292.597 347.706 291.716 348.039 290.852 348.371C290.021 348.67 289.407 348.903 289.008 349.069C288.476 349.235 288.027 349.368 287.662 349.468C287.296 349.534 286.964 349.601 286.665 349.667C286.366 349.734 286.05 349.767 285.718 349.767C285.419 349.8 285.053 349.817 284.621 349.817C283.425 349.817 282.428 349.667 281.63 349.368C280.866 349.069 280.251 348.637 279.786 348.072C279.32 347.474 278.971 346.759 278.739 345.928C278.539 345.064 278.406 344.067 278.34 342.937Z" fill="#501500"/>
<path d="M314.78 338.551C314.713 338.418 314.597 338.235 314.431 338.002C314.298 337.736 314.132 337.604 313.933 337.604C313.301 337.604 312.653 337.886 311.988 338.451C311.357 338.983 310.742 339.631 310.144 340.395C309.579 341.126 309.08 341.874 308.648 342.638C308.25 343.403 308 344.001 307.901 344.433C307.768 344.865 307.701 345.38 307.701 345.978C307.701 346.576 307.651 347.141 307.552 347.673C307.485 348.205 307.303 348.653 307.003 349.019C306.738 349.385 306.256 349.567 305.558 349.567C305.126 349.567 304.827 349.484 304.66 349.318C304.528 349.119 304.461 348.803 304.461 348.371C304.694 346.776 304.893 345.463 305.059 344.433C305.259 343.403 305.425 342.505 305.558 341.741C305.724 340.943 305.873 340.179 306.006 339.448C306.173 338.684 306.355 337.77 306.555 336.706C306.754 335.643 306.97 334.347 307.203 332.818C307.435 331.256 307.718 329.279 308.05 326.886C308.05 326.387 308.083 325.689 308.15 324.792C308.216 323.862 308.333 322.881 308.499 321.851C308.698 320.788 308.948 319.724 309.247 318.661C309.546 317.564 309.911 316.584 310.343 315.72C310.809 314.855 311.34 314.158 311.939 313.626C312.537 313.061 313.235 312.778 314.032 312.778C314.597 312.778 315.046 312.978 315.378 313.377C315.744 313.742 316.01 314.191 316.176 314.723C316.375 315.254 316.491 315.819 316.525 316.417C316.558 316.982 316.575 317.448 316.575 317.813C316.575 318.644 316.508 319.442 316.375 320.206C316.242 320.937 316.076 321.685 315.877 322.449C315.677 323.18 315.461 323.928 315.229 324.692C314.996 325.424 314.797 326.155 314.63 326.886L311.44 332.968L309.645 336.856L309.895 337.404C310.593 336.573 311.307 335.942 312.038 335.51C312.769 335.045 313.683 334.779 314.78 334.712C315.278 334.679 315.694 334.829 316.026 335.161C316.392 335.493 316.691 335.925 316.923 336.457C317.156 336.955 317.322 337.471 317.422 338.002C317.555 338.534 317.638 338.966 317.671 339.298C317.671 339.498 317.655 339.814 317.621 340.246C317.588 340.678 317.555 341.176 317.522 341.741C317.488 342.306 317.455 342.904 317.422 343.536C317.422 344.134 317.455 344.699 317.522 345.23C317.588 345.762 317.721 346.227 317.92 346.626C318.153 346.992 318.452 347.208 318.818 347.274C320.114 347.108 321.26 346.892 322.257 346.626C323.288 346.327 324.185 345.928 324.949 345.43C325.714 344.898 326.345 344.234 326.844 343.436C327.375 342.638 327.774 341.658 328.04 340.495C328.273 340.162 328.605 339.996 329.037 339.996C329.535 339.996 329.851 340.179 329.984 340.545C330.15 340.91 330.233 341.309 330.233 341.741C330.233 343.07 329.801 344.25 328.937 345.28C328.106 346.277 327.043 347.108 325.747 347.773C324.451 348.437 323.055 348.953 321.559 349.318C320.064 349.65 318.685 349.817 317.422 349.817C316.624 349.817 316.076 349.551 315.777 349.019C315.478 348.454 315.295 347.789 315.229 347.025C315.195 346.227 315.195 345.43 315.229 344.632C315.262 343.835 315.262 343.187 315.229 342.688C315.229 342.522 315.212 342.256 315.179 341.891C315.146 341.492 315.096 341.076 315.029 340.644C314.996 340.212 314.946 339.797 314.88 339.398C314.813 338.999 314.78 338.717 314.78 338.551ZM310.692 326.587C310.692 326.686 310.692 326.853 310.692 327.085C310.692 327.318 310.692 327.534 310.692 327.733C310.726 327.933 310.742 328.115 310.742 328.282C310.742 328.448 310.742 328.548 310.742 328.581L310.991 328.83C311.324 328.631 311.623 328.282 311.889 327.783C312.188 327.285 312.454 326.686 312.686 325.989C312.919 325.291 313.118 324.56 313.284 323.795C313.484 322.998 313.65 322.217 313.783 321.452C313.916 320.688 314.016 319.99 314.082 319.359C314.182 318.727 314.232 318.212 314.232 317.813C314.232 317.68 314.215 317.431 314.182 317.065C314.182 316.7 314.165 316.484 314.132 316.417L313.883 315.919C313.085 316.55 312.47 317.298 312.038 318.162C311.606 319.026 311.29 319.924 311.091 320.854C310.892 321.785 310.775 322.748 310.742 323.745C310.709 324.742 310.692 325.689 310.692 326.587Z" fill="#501500"/>
<path d="M330.034 336.407C330.1 336.274 330.233 336.075 330.433 335.809C330.632 335.51 330.732 335.261 330.732 335.061V334.912C330.732 334.878 330.699 334.845 330.632 334.812C330.566 334.745 330.516 334.712 330.483 334.712H329.585C328.721 334.978 327.757 335.161 326.694 335.261C325.597 335.36 324.55 335.394 323.553 335.36C322.523 335.327 321.643 335.244 320.911 335.111C320.18 334.945 319.748 334.762 319.615 334.563C319.482 334.363 319.732 334.131 320.363 333.865C320.995 333.566 322.191 333.267 323.952 332.968C324.052 332.968 324.285 332.934 324.65 332.868C324.982 332.768 325.365 332.685 325.797 332.619C326.195 332.552 326.578 332.486 326.943 332.419C327.309 332.319 327.541 332.27 327.641 332.27C327.774 332.236 328.057 332.22 328.489 332.22C328.921 332.187 329.353 332.153 329.785 332.12C330.25 332.087 330.682 332.07 331.081 332.07C331.513 332.07 331.812 332.07 331.978 332.07L332.227 331.771L336.116 325.241C336.248 325.008 336.481 324.825 336.813 324.692C337.179 324.56 337.461 324.493 337.661 324.493C338.093 324.493 338.392 324.676 338.558 325.041C338.724 325.374 338.807 325.706 338.807 326.038C338.807 326.072 338.791 326.105 338.758 326.138C338.758 326.171 338.758 326.205 338.758 326.238V326.437L336.564 331.771V332.07C336.631 331.871 336.747 331.771 336.913 331.771C337.113 331.771 337.262 331.771 337.362 331.771C337.86 331.771 338.342 331.937 338.807 332.27C339.273 332.602 339.505 333.051 339.505 333.616C339.505 333.881 339.422 334.097 339.256 334.264C339.09 334.43 338.891 334.563 338.658 334.662C338.425 334.762 338.176 334.845 337.91 334.912C337.644 334.945 337.412 334.961 337.212 334.961C336.813 334.961 336.431 334.912 336.066 334.812C335.733 334.712 335.368 334.662 334.969 334.662C334.603 334.662 334.271 334.862 333.972 335.261C333.673 335.626 333.39 336.125 333.125 336.756C332.892 337.354 332.693 338.036 332.526 338.8C332.36 339.564 332.211 340.312 332.078 341.043C331.945 341.774 331.845 342.456 331.779 343.087C331.745 343.718 331.729 344.2 331.729 344.533C331.729 344.666 331.729 344.931 331.729 345.33C331.762 345.729 331.779 345.995 331.779 346.128C331.812 346.327 331.895 346.51 332.028 346.676C332.161 346.809 332.294 346.959 332.427 347.125H333.573C334.903 347.125 336.215 346.826 337.511 346.227C338.841 345.629 340.087 344.948 341.25 344.184C341.317 344.15 341.466 344.001 341.699 343.735C341.965 343.436 342.247 343.153 342.546 342.888C342.845 342.588 343.111 342.323 343.344 342.09C343.61 341.857 343.792 341.741 343.892 341.741C344.125 341.741 344.341 341.857 344.54 342.09C344.74 342.323 344.839 342.572 344.839 342.838C344.839 343.469 344.607 344.084 344.141 344.682C343.709 345.28 343.144 345.845 342.446 346.377C341.749 346.876 340.951 347.341 340.054 347.773C339.156 348.205 338.259 348.57 337.362 348.87C336.498 349.169 335.667 349.401 334.869 349.567C334.105 349.734 333.474 349.817 332.975 349.817C332.51 349.817 332.028 349.767 331.529 349.667C331.031 349.534 330.582 349.335 330.183 349.069C329.785 348.803 329.452 348.471 329.186 348.072C328.921 347.673 328.788 347.175 328.788 346.576V341.043L330.034 336.407Z" fill="#501500"/>
<path d="M345.388 342.738C345.122 342.871 344.839 342.954 344.54 342.987C344.241 342.987 343.942 342.987 343.643 342.987C343.344 342.987 343.045 343.004 342.746 343.037C342.446 343.037 342.147 343.104 341.848 343.237C341.283 343.303 340.918 343.27 340.752 343.137C340.585 342.971 340.536 342.755 340.602 342.489C340.668 342.223 340.851 341.924 341.15 341.591C341.449 341.259 341.798 340.977 342.197 340.744C342.563 340.511 342.962 340.345 343.394 340.246C343.859 340.146 344.274 340.162 344.64 340.295C344.474 339.697 344.49 339.182 344.69 338.75C344.889 338.318 345.288 338.102 345.886 338.102C346.185 338.102 346.451 338.135 346.684 338.202C346.95 338.235 347.149 338.368 347.282 338.601C347.78 338.301 348.445 337.803 349.276 337.105C350.107 336.374 350.954 335.643 351.818 334.912C352.715 334.147 353.53 333.483 354.261 332.918C354.992 332.319 355.49 332.02 355.756 332.02C355.856 332.02 355.989 332.037 356.155 332.07C356.321 332.07 356.487 332.103 356.654 332.17C356.853 332.236 357.003 332.319 357.102 332.419C357.235 332.486 357.302 332.602 357.302 332.768V334.912C357.069 335.842 356.836 336.723 356.604 337.554C356.404 338.351 356.222 339.149 356.055 339.946C355.922 340.711 355.823 341.492 355.756 342.289C355.69 343.087 355.657 343.934 355.657 344.832C356.188 344.832 356.82 344.715 357.551 344.483C358.315 344.25 359.08 343.968 359.844 343.635C360.608 343.303 361.323 342.971 361.987 342.638C362.652 342.273 363.184 341.974 363.583 341.741C363.649 341.708 363.799 341.591 364.031 341.392C364.264 341.193 364.513 340.993 364.779 340.794C365.045 340.561 365.294 340.362 365.527 340.196C365.793 339.996 365.959 339.863 366.025 339.797C366.092 339.73 366.258 339.647 366.524 339.548C366.79 339.415 366.939 339.332 366.972 339.298C367.105 339.265 367.222 339.315 367.321 339.448C367.454 339.548 367.571 339.681 367.67 339.847C367.77 339.98 367.836 340.129 367.87 340.295C367.936 340.428 367.969 340.511 367.969 340.545C367.969 340.877 367.836 341.209 367.571 341.542C367.305 341.874 366.989 342.19 366.623 342.489C366.258 342.755 365.876 343.02 365.477 343.286C365.111 343.519 364.829 343.735 364.629 343.934C364.364 344.067 363.898 344.283 363.234 344.582C362.602 344.882 361.921 345.197 361.19 345.53C360.459 345.862 359.761 346.178 359.096 346.477C358.465 346.776 358.016 346.992 357.75 347.125C357.684 347.158 357.534 347.208 357.302 347.274C357.069 347.308 356.82 347.374 356.554 347.474C356.288 347.573 356.022 347.657 355.756 347.723C355.524 347.756 355.374 347.789 355.308 347.823C355.009 347.922 354.776 348.089 354.61 348.321C354.477 348.554 354.327 348.786 354.161 349.019C354.028 349.252 353.845 349.451 353.613 349.617C353.413 349.783 353.081 349.833 352.616 349.767C352.583 349.734 352.433 349.667 352.167 349.567C351.934 349.434 351.785 349.335 351.718 349.268C350.921 348.703 350.24 348.172 349.675 347.673C349.11 347.175 348.595 346.693 348.129 346.227C347.664 345.729 347.215 345.197 346.783 344.632C346.385 344.067 345.919 343.436 345.388 342.738ZM348.528 340.744C348.761 341.243 348.977 341.724 349.176 342.19C349.409 342.655 349.675 343.104 349.974 343.536C350.273 343.934 350.605 344.283 350.971 344.582C351.37 344.882 351.851 345.064 352.416 345.131C352.483 344.632 352.566 344.034 352.666 343.336C352.765 342.638 352.882 341.907 353.015 341.143C353.147 340.378 353.297 339.631 353.463 338.9C353.663 338.135 353.879 337.471 354.111 336.906H353.613C353.081 337.271 352.583 337.637 352.117 338.002C351.685 338.335 351.253 338.667 350.821 338.999C350.389 339.298 350.04 339.564 349.774 339.797C349.741 339.83 349.691 339.88 349.625 339.946C349.558 340.013 349.508 340.046 349.475 340.046C349.442 340.113 349.292 340.229 349.027 340.395C348.761 340.561 348.595 340.678 348.528 340.744ZM354.111 336.158C354.012 336.158 353.962 336.241 353.962 336.407C353.962 336.54 354.012 336.607 354.111 336.607C354.244 336.607 354.311 336.54 354.311 336.407C354.311 336.241 354.244 336.158 354.111 336.158Z" fill="#501500"/>
</svg>
